<svg width="20" height="20" viewBox="0 0 20 20" fill="none" xmlns="http://www.w3.org/2000/svg">
<path d="M10 3.5C11.2656 3.5 12.4362 3.74762 13.5117 4.24285C14.5872 4.73808 15.4375 5.41149 16.0625 6.26308C16.6875 7.11464 17 8.04353 17 9.04972C17 10.0559 16.6875 10.9861 16.0625 11.8403C15.4375 12.6945 14.5885 13.3692 13.5156 13.8645C12.4427 14.3597 11.2708 14.6073 10 14.6073C9.59897 14.6073 9.18488 14.5785 8.75781 14.5208C6.90363 15.8152 5.91668 16.4703 5.79688 16.486C5.73958 16.507 5.68488 16.5044 5.63281 16.4782C5.61197 16.4625 5.59635 16.4415 5.58593 16.4153C5.57551 16.3891 5.57031 16.3655 5.57031 16.3445V16.3131C5.60158 16.1087 5.83854 15.2571 6.28125 13.7583C5.27604 13.2553 4.47786 12.5884 3.88672 11.7578C3.29557 10.9272 3 10.0245 3 9.04972C3 8.04353 3.3125 7.11464 3.9375 6.26308C4.5625 5.41149 5.41276 4.73808 6.48828 4.24285C7.5638 3.74762 8.73437 3.5 10 3.5Z" fill="#191919"/>
</svg>
