<svg width="512" height="512" viewBox="0 0 512 512" fill="none" xmlns="http://www.w3.org/2000/svg">
<g clip-path="url(#clip0_122_7223)">
<rect width="512" height="512" fill="white"/>
<path d="M341.316 224.1L287.158 169.941L169.941 287.159L224.098 341.316L341.316 224.1Z" fill="#252E67"/>
<path d="M259.711 75.7227C300.682 116.695 300.682 183.125 259.711 224.098L224.098 259.711C183.125 300.682 116.695 300.682 75.7227 259.711L30.4678 214.454C46.857 230.844 101.33 202.943 152.137 152.137C202.943 101.33 230.844 46.857 214.454 30.4677L259.711 75.7227Z" fill="#5962A1"/>
<path d="M287.9 252.289C328.873 211.318 395.305 211.318 436.278 252.289L481.532 297.546L481.909 297.936C497.485 314.785 469.623 368.804 419.214 419.214C368.803 469.623 314.785 497.485 297.936 481.909L297.546 481.532L252.289 436.278C211.318 395.305 211.318 328.873 252.289 287.9L287.9 252.289Z" fill="#2C3679"/>
<path d="M30.4679 214.455C46.857 230.844 101.33 202.943 152.136 152.137C202.943 101.33 230.844 46.8571 214.455 30.468C198.066 14.0787 143.593 41.9794 92.786 92.7861C41.9794 143.593 14.0786 198.066 30.4679 214.455Z" fill="#252E67"/>
<path d="M223.728 340.945C234.995 352.213 270.37 335.107 302.738 302.738C335.107 270.37 352.213 234.995 340.945 223.728C329.678 212.46 294.303 229.567 261.935 261.935C229.567 294.303 212.46 329.678 223.728 340.945Z" fill="#5A64A8"/>
</g>
<defs>
<clipPath id="clip0_122_7223">
<rect width="512" height="512" fill="white"/>
</clipPath>
</defs>
</svg>
